<svg width="387" height="276" viewBox="0 0 387 276" fill="none" xmlns="http://www.w3.org/2000/svg">
<path d="M15 15.9734L372 38.4339V148.996H387V24.348L0 0V209.996H15V15.9734Z" fill="#474261"/>
<path d="M6 260.668L382.256 236.996L383.198 251.967L6.94186 275.639L6 260.668Z" fill="#474261"/>
<path d="M140.5 102H133.5L114 145L93 102H86L110 150H118L137 108L156 150H164L186 102H179L160 145L140.5 102Z" fill="#474261"/>
<path d="M194 102V150H238V145H200V102H194Z" fill="#474261"/>
<path d="M284.719 123.406C282.365 123.135 279.542 123 276.25 123H268C265.333 123 263.031 122.948 261.094 122.844C259.177 122.719 257.552 122.521 256.219 122.25C254.885 121.979 253.812 121.635 253 121.219C252.188 120.802 251.552 120.292 251.094 119.688C250.656 119.062 250.365 118.344 250.219 117.531C250.073 116.719 250 115.792 250 114.75C250 113.062 250.292 111.656 250.875 110.531C251.458 109.406 252.5 108.51 254 107.844C255.5 107.177 257.542 106.708 260.125 106.438C262.708 106.146 266 106 270 106H276C279 106 281.521 106.073 283.562 106.219C285.604 106.344 287.25 106.677 288.5 107.219C289.75 107.74 290.646 108.531 291.188 109.594C291.729 110.656 292 112.125 292 114H298C298 112.5 297.875 111.135 297.625 109.906C297.375 108.677 296.927 107.583 296.281 106.625C295.656 105.646 294.802 104.812 293.719 104.125C292.656 103.417 291.312 102.833 289.688 102.375C288.062 101.896 286.125 101.552 283.875 101.344C281.625 101.115 279 101 276 101H270C266.333 101 263.146 101.135 260.438 101.406C257.729 101.677 255.406 102.083 253.469 102.625C251.552 103.146 249.979 103.802 248.75 104.594C247.521 105.385 246.552 106.292 245.844 107.312C245.135 108.312 244.646 109.438 244.375 110.688C244.125 111.938 244 113.292 244 114.75C244 116.146 244.083 117.448 244.25 118.656C244.417 119.844 244.771 120.927 245.312 121.906C245.875 122.885 246.688 123.76 247.75 124.531C248.812 125.281 250.229 125.917 252 126.438C253.771 126.938 255.958 127.323 258.562 127.594C261.188 127.865 264.333 128 268 128H276.25C279.583 128 282.281 128.146 284.344 128.438C286.406 128.708 288 129.177 289.125 129.844C290.271 130.51 291.031 131.406 291.406 132.531C291.802 133.656 292 135.062 292 136.75C292 138.438 291.719 139.875 291.156 141.062C290.594 142.229 289.625 143.177 288.25 143.906C286.875 144.635 285.031 145.167 282.719 145.5C280.406 145.833 277.5 146 274 146H266C263 146 260.479 145.938 258.438 145.812C256.417 145.667 254.781 145.333 253.531 144.812C252.281 144.271 251.385 143.469 250.844 142.406C250.302 141.344 250.031 139.875 250.031 138H244.031C244.031 139.5 244.156 140.875 244.406 142.125C244.656 143.354 245.094 144.458 245.719 145.438C246.365 146.396 247.219 147.24 248.281 147.969C249.344 148.677 250.688 149.271 252.312 149.75C253.938 150.208 255.875 150.552 258.125 150.781C260.375 151.01 263 151.125 266 151.125H274C277.333 151.125 280.24 150.969 282.719 150.656C285.219 150.365 287.354 149.927 289.125 149.344C290.896 148.76 292.354 148.052 293.5 147.219C294.646 146.385 295.552 145.438 296.219 144.375C296.885 143.312 297.344 142.146 297.594 140.875C297.865 139.583 298 138.208 298 136.75C298 135.292 297.917 133.938 297.75 132.688C297.604 131.438 297.271 130.312 296.75 129.312C296.229 128.292 295.49 127.385 294.531 126.594C293.573 125.802 292.281 125.146 290.656 124.625C289.052 124.083 287.073 123.677 284.719 123.406Z" fill="#474261"/>
<path d="M70.4688 180H72.6562L78.75 193.438L84.6875 180H86.875L80 195H77.5L71.5625 181.875L65.625 195H63.125L55.625 180H57.8125L64.375 193.438L70.4688 180Z" fill="#474261"/>
<path d="M89.375 195V180H104.375V181.562H91.25V186.562H103.75V188.125H91.25V193.438H104.375V195H89.375Z" fill="#474261"/>
<path fill-rule="evenodd" clip-rule="evenodd" d="M106.875 195V180H119.385C120.322 180 121.077 180.078 121.65 180.234C122.223 180.384 122.663 180.609 122.969 180.908C123.281 181.201 123.49 181.569 123.594 182.012C123.698 182.454 123.75 182.962 123.75 183.535C123.75 183.952 123.714 184.32 123.643 184.639C123.571 184.958 123.477 185.234 123.359 185.469C123.242 185.703 123.109 185.902 122.959 186.064C122.809 186.221 122.656 186.351 122.5 186.455C122.135 186.702 121.719 186.842 121.25 186.875C121.836 186.908 122.357 187.051 122.812 187.305C123.008 187.415 123.197 187.555 123.379 187.725C123.568 187.887 123.734 188.092 123.877 188.34C124.027 188.581 124.147 188.867 124.238 189.199C124.329 189.525 124.375 189.902 124.375 190.332C124.375 190.853 124.349 191.331 124.297 191.768C124.251 192.197 124.154 192.585 124.004 192.93C123.854 193.275 123.639 193.577 123.359 193.838C123.079 194.098 122.705 194.316 122.236 194.492C121.774 194.661 121.204 194.788 120.527 194.873C119.857 194.958 119.053 195 118.115 195H106.875ZM117.49 193.438C118.219 193.438 118.851 193.428 119.385 193.408C119.919 193.382 120.371 193.333 120.742 193.262C121.113 193.184 121.413 193.076 121.641 192.939C121.868 192.796 122.044 192.611 122.168 192.383C122.298 192.148 122.386 191.865 122.432 191.533C122.477 191.201 122.5 190.801 122.5 190.332C122.5 189.967 122.477 189.652 122.432 189.385C122.386 189.111 122.298 188.883 122.168 188.701C122.044 188.512 121.868 188.363 121.641 188.252C121.413 188.135 121.113 188.044 120.742 187.979C120.371 187.913 119.919 187.871 119.385 187.852C118.851 187.826 118.219 187.812 117.49 187.812H108.75V193.438H117.49ZM117.49 186.25C118.128 186.25 118.678 186.237 119.141 186.211C119.603 186.185 119.997 186.136 120.322 186.064C120.648 185.993 120.911 185.895 121.113 185.771C121.315 185.641 121.471 185.475 121.582 185.273C121.699 185.072 121.777 184.831 121.816 184.551C121.855 184.264 121.875 183.926 121.875 183.535C121.875 183.118 121.829 182.78 121.738 182.52C121.647 182.259 121.484 182.061 121.25 181.924C121.016 181.781 120.697 181.686 120.293 181.641C119.896 181.589 119.385 181.562 118.76 181.562H108.75V186.25H117.49Z" fill="#474261"/>
<path d="M131.875 195V180H133.75V193.438H145.625V195H131.875Z" fill="#474261"/>
<path d="M148.125 180H150V195H148.125V180Z" fill="#474261"/>
<path d="M153.75 195V180H168.125V181.562H155.625V186.562H167.5V188.125H155.625V195H153.75Z" fill="#474261"/>
<path d="M170.625 195V180H185.625V181.562H172.5V186.562H185V188.125H172.5V193.438H185.625V195H170.625Z" fill="#474261"/>
<path d="M201.953 186.562C202.982 186.562 203.864 186.605 204.6 186.689C205.335 186.774 205.954 186.901 206.455 187.07C206.963 187.233 207.367 187.438 207.666 187.686C207.965 187.933 208.197 188.216 208.359 188.535C208.522 188.848 208.626 189.199 208.672 189.59C208.724 189.98 208.75 190.404 208.75 190.859C208.75 191.315 208.708 191.745 208.623 192.148C208.545 192.546 208.402 192.91 208.193 193.242C207.985 193.574 207.702 193.87 207.344 194.131C206.986 194.391 206.53 194.613 205.977 194.795C205.423 194.977 204.756 195.114 203.975 195.205C203.2 195.303 202.292 195.352 201.25 195.352H198.75C197.812 195.352 196.992 195.316 196.289 195.244C195.586 195.173 194.98 195.065 194.473 194.922C193.965 194.772 193.545 194.587 193.213 194.365C192.881 194.137 192.614 193.874 192.412 193.574C192.217 193.268 192.08 192.923 192.002 192.539C191.924 192.148 191.885 191.719 191.885 191.25H193.76C193.76 191.836 193.844 192.295 194.014 192.627C194.183 192.959 194.463 193.21 194.854 193.379C195.244 193.542 195.755 193.646 196.387 193.691C197.025 193.73 197.812 193.75 198.75 193.75H201.25C202.344 193.75 203.252 193.698 203.975 193.594C204.697 193.49 205.273 193.324 205.703 193.096C206.133 192.868 206.436 192.572 206.611 192.207C206.787 191.836 206.875 191.387 206.875 190.859C206.875 190.332 206.813 189.893 206.689 189.541C206.572 189.189 206.335 188.91 205.977 188.701C205.625 188.493 205.127 188.346 204.482 188.262C203.838 188.171 202.995 188.125 201.953 188.125H199.375C198.229 188.125 197.246 188.083 196.426 187.998C195.612 187.913 194.928 187.793 194.375 187.637C193.822 187.474 193.379 187.275 193.047 187.041C192.715 186.8 192.461 186.527 192.285 186.221C192.116 185.915 192.005 185.576 191.953 185.205C191.901 184.827 191.875 184.421 191.875 183.984C191.875 183.529 191.914 183.105 191.992 182.715C192.077 182.324 192.23 181.973 192.451 181.66C192.673 181.341 192.975 181.058 193.359 180.811C193.743 180.563 194.235 180.358 194.834 180.195C195.439 180.026 196.165 179.899 197.012 179.814C197.858 179.73 198.854 179.688 200 179.688H201.875C202.812 179.688 203.633 179.723 204.336 179.795C205.039 179.86 205.645 179.967 206.152 180.117C206.66 180.26 207.08 180.443 207.412 180.664C207.751 180.879 208.018 181.139 208.213 181.445C208.415 181.745 208.555 182.087 208.633 182.471C208.711 182.855 208.75 183.281 208.75 183.75H206.875C206.875 183.164 206.79 182.705 206.621 182.373C206.452 182.041 206.172 181.794 205.781 181.631C205.391 181.462 204.876 181.357 204.238 181.318C203.6 181.273 202.812 181.25 201.875 181.25H200C198.75 181.25 197.721 181.296 196.914 181.387C196.107 181.471 195.469 181.618 195 181.826C194.531 182.035 194.206 182.314 194.023 182.666C193.841 183.018 193.75 183.457 193.75 183.984C193.75 184.31 193.773 184.6 193.818 184.854C193.864 185.107 193.955 185.332 194.092 185.527C194.235 185.716 194.434 185.876 194.688 186.006C194.941 186.136 195.277 186.243 195.693 186.328C196.11 186.413 196.618 186.475 197.217 186.514C197.822 186.546 198.542 186.562 199.375 186.562H201.953Z" fill="#474261"/>
<path d="M229.385 187.5C229.385 188.385 229.372 189.193 229.346 189.922C229.326 190.651 229.251 191.305 229.121 191.885C228.997 192.464 228.799 192.969 228.525 193.398C228.252 193.828 227.861 194.186 227.354 194.473C226.846 194.753 226.198 194.961 225.41 195.098C224.629 195.241 223.665 195.312 222.52 195.312H218.125C216.979 195.312 216.012 195.241 215.225 195.098C214.443 194.961 213.799 194.753 213.291 194.473C212.783 194.186 212.389 193.828 212.109 193.398C211.836 192.969 211.634 192.464 211.504 191.885C211.38 191.305 211.309 190.651 211.289 189.922C211.27 189.193 211.26 188.385 211.26 187.5V180H213.135V187.5C213.135 188.438 213.141 189.245 213.154 189.922C213.174 190.592 213.229 191.159 213.32 191.621C213.411 192.083 213.555 192.454 213.75 192.734C213.952 193.014 214.238 193.229 214.609 193.379C214.98 193.529 215.449 193.63 216.016 193.682C216.589 193.727 217.292 193.75 218.125 193.75H222.52C223.346 193.75 224.046 193.727 224.619 193.682C225.192 193.63 225.661 193.529 226.025 193.379C226.396 193.229 226.683 193.014 226.885 192.734C227.087 192.454 227.233 192.083 227.324 191.621C227.422 191.159 227.477 190.592 227.49 189.922C227.503 189.245 227.51 188.438 227.51 187.5L227.5 180H229.385V187.5Z" fill="#474261"/>
<path fill-rule="evenodd" clip-rule="evenodd" d="M232.52 180H243.789C244.72 180 245.505 180.042 246.143 180.127C246.787 180.205 247.318 180.326 247.734 180.488C248.151 180.651 248.47 180.853 248.691 181.094C248.919 181.335 249.085 181.618 249.189 181.943C249.294 182.269 249.352 182.633 249.365 183.037C249.385 183.441 249.395 183.887 249.395 184.375C249.395 184.883 249.382 185.352 249.355 185.781C249.336 186.211 249.261 186.602 249.131 186.953C249.007 187.298 248.805 187.604 248.525 187.871C248.252 188.132 247.858 188.35 247.344 188.525C246.836 188.701 246.188 188.835 245.4 188.926C244.619 189.017 243.656 189.062 242.51 189.062H234.395V195H232.52V180ZM234.395 187.5H242.51C243.343 187.5 244.043 187.487 244.609 187.461C245.182 187.428 245.654 187.373 246.025 187.295C246.396 187.217 246.683 187.106 246.885 186.963C247.087 186.82 247.233 186.631 247.324 186.396C247.422 186.162 247.477 185.882 247.49 185.557C247.51 185.225 247.52 184.831 247.52 184.375C247.52 183.952 247.51 183.587 247.49 183.281C247.477 182.975 247.422 182.718 247.324 182.51C247.233 182.301 247.087 182.135 246.885 182.012C246.683 181.888 246.396 181.794 246.025 181.729C245.654 181.657 245.182 181.611 244.609 181.592C244.043 181.572 243.343 181.562 242.51 181.562H234.395V187.5Z" fill="#474261"/>
<path fill-rule="evenodd" clip-rule="evenodd" d="M251.895 180H263.164C264.095 180 264.88 180.042 265.518 180.127C266.162 180.205 266.693 180.326 267.109 180.488C267.526 180.651 267.845 180.853 268.066 181.094C268.294 181.335 268.46 181.618 268.564 181.943C268.669 182.269 268.727 182.633 268.74 183.037C268.76 183.441 268.77 183.887 268.77 184.375C268.77 184.883 268.757 185.352 268.73 185.781C268.711 186.211 268.636 186.602 268.506 186.953C268.382 187.298 268.18 187.604 267.9 187.871C267.627 188.132 267.233 188.35 266.719 188.525C266.211 188.701 265.563 188.835 264.775 188.926C263.994 189.017 263.031 189.062 261.885 189.062H253.77V195H251.895V180ZM253.77 187.5H261.885C262.718 187.5 263.418 187.487 263.984 187.461C264.557 187.428 265.029 187.373 265.4 187.295C265.771 187.217 266.058 187.106 266.26 186.963C266.462 186.82 266.608 186.631 266.699 186.396C266.797 186.162 266.852 185.882 266.865 185.557C266.885 185.225 266.895 184.831 266.895 184.375C266.895 183.952 266.885 183.587 266.865 183.281C266.852 182.975 266.797 182.718 266.699 182.51C266.608 182.301 266.462 182.135 266.26 182.012C266.058 181.888 265.771 181.794 265.4 181.729C265.029 181.657 264.557 181.611 263.984 181.592C263.418 181.572 262.718 181.562 261.885 181.562H253.77V187.5Z" fill="#474261"/>
<path fill-rule="evenodd" clip-rule="evenodd" d="M283.154 179.688C284.3 179.688 285.264 179.759 286.045 179.902C286.833 180.039 287.48 180.251 287.988 180.537C288.496 180.817 288.887 181.172 289.16 181.602C289.434 182.031 289.632 182.536 289.756 183.115C289.886 183.695 289.961 184.349 289.98 185.078C290.007 185.807 290.02 186.615 290.02 187.5C290.02 188.385 290.007 189.193 289.98 189.922C289.961 190.651 289.886 191.305 289.756 191.885C289.632 192.464 289.434 192.969 289.16 193.398C288.887 193.828 288.496 194.186 287.988 194.473C287.48 194.753 286.833 194.961 286.045 195.098C285.264 195.241 284.3 195.312 283.154 195.312H277.51C276.364 195.312 275.397 195.241 274.609 195.098C273.828 194.961 273.184 194.753 272.676 194.473C272.168 194.186 271.774 193.828 271.494 193.398C271.221 192.969 271.019 192.464 270.889 191.885C270.765 191.305 270.693 190.651 270.674 189.922C270.654 189.193 270.645 188.385 270.645 187.5C270.645 186.615 270.654 185.807 270.674 185.078C270.693 184.349 270.765 183.695 270.889 183.115C271.019 182.536 271.221 182.031 271.494 181.602C271.774 181.172 272.168 180.817 272.676 180.537C273.184 180.251 273.828 180.039 274.609 179.902C275.397 179.759 276.364 179.688 277.51 179.688H283.154ZM283.154 193.75C283.981 193.75 284.678 193.727 285.244 193.682C285.817 193.63 286.289 193.529 286.66 193.379C287.031 193.229 287.318 193.014 287.52 192.734C287.721 192.454 287.868 192.083 287.959 191.621C288.05 191.159 288.102 190.592 288.115 189.922C288.135 189.245 288.145 188.438 288.145 187.5C288.145 186.562 288.135 185.758 288.115 185.088C288.102 184.411 288.05 183.841 287.959 183.379C287.868 182.917 287.721 182.546 287.52 182.266C287.318 181.986 287.031 181.771 286.66 181.621C286.296 181.471 285.827 181.374 285.254 181.328C284.688 181.276 283.988 181.25 283.154 181.25H277.51C276.676 181.25 275.973 181.276 275.4 181.328C274.834 181.374 274.365 181.471 273.994 181.621C273.623 181.771 273.337 181.986 273.135 182.266C272.933 182.546 272.786 182.917 272.695 183.379C272.604 183.841 272.552 184.411 272.539 185.088C272.526 185.758 272.52 186.562 272.52 187.5C272.52 188.438 272.526 189.245 272.539 189.922C272.559 190.592 272.614 191.159 272.705 191.621C272.796 192.083 272.939 192.454 273.135 192.734C273.337 193.014 273.623 193.229 273.994 193.379C274.365 193.529 274.834 193.63 275.4 193.682C275.973 193.727 276.676 193.75 277.51 193.75H283.154Z" fill="#474261"/>
<path fill-rule="evenodd" clip-rule="evenodd" d="M310.332 195H308.457V192.188C308.457 191.732 308.447 191.341 308.428 191.016C308.415 190.684 308.359 190.4 308.262 190.166C308.171 189.932 308.024 189.743 307.822 189.6C307.62 189.456 307.334 189.346 306.963 189.268C306.592 189.189 306.12 189.137 305.547 189.111C304.98 189.079 304.281 189.062 303.447 189.062H295.02V195H293.145V180H303.76C304.906 180 305.869 180.042 306.65 180.127C307.438 180.205 308.086 180.326 308.594 180.488C309.108 180.651 309.502 180.853 309.775 181.094C310.055 181.335 310.257 181.618 310.381 181.943C310.511 182.269 310.586 182.633 310.605 183.037C310.632 183.441 310.645 183.887 310.645 184.375C310.645 185 310.599 185.55 310.508 186.025C310.423 186.494 310.277 186.895 310.068 187.227C309.86 187.559 309.583 187.826 309.238 188.027C308.893 188.223 308.46 188.359 307.939 188.438C308.46 188.516 308.877 188.652 309.189 188.848C309.502 189.043 309.743 189.297 309.912 189.609C310.081 189.922 310.192 190.293 310.244 190.723C310.303 191.152 310.332 191.641 310.332 192.188V195ZM295.02 187.5H303.76C304.593 187.5 305.293 187.487 305.859 187.461C306.432 187.428 306.904 187.373 307.275 187.295C307.646 187.217 307.933 187.106 308.135 186.963C308.337 186.82 308.483 186.631 308.574 186.396C308.672 186.162 308.727 185.882 308.74 185.557C308.76 185.225 308.77 184.831 308.77 184.375C308.77 183.952 308.76 183.587 308.74 183.281C308.727 182.975 308.672 182.718 308.574 182.51C308.483 182.301 308.337 182.135 308.135 182.012C307.933 181.888 307.646 181.794 307.275 181.729C306.904 181.657 306.432 181.611 305.859 181.592C305.293 181.572 304.593 181.562 303.76 181.562H295.02V187.5Z" fill="#474261"/>
<path d="M330.02 180V181.562H322.52V195H320.645V181.562H313.145V180H330.02Z" fill="#474261"/>
</svg>
